{
  "accessors": [
    {
      "bufferView": 2,
      "componentType": 5126,
      "count": 14310,
      "max": [
        0.4997110068798065,
        -0.10151500254869461,
        -0.15329299867153168
      ],
      "min": [
        0.4125959873199463,
        -0.20165100693702698,
        -0.3043670058250427
      ],
      "type": "VEC3"
    },
    {
      "bufferView": 2,
      "byteOffset": 171720,
      "componentType": 5126,
      "count": 14310,
      "max": [
        1.0,
        1.0,
        1.0
      ],
      "min": [
        -1.0,
        -1.0,
        -1.0
      ],
      "type": "VEC3"
    },
    {
      "bufferView": 3,
      "componentType": 5126,
      "count": 14310,
      "max": [
        1.0,
        1.0,
        1.0,
        1.0
      ],
      "min": [
        -0.9999788999557495,
        -1.0,
        -1.0,
        -1.0
      ],
      "type": "VEC4"
    },
    {
      "bufferView": 1,
      "componentType": 5126,
      "count": 14310,
      "max": [
        0.9980469942092896,
        0.9980469942092896
      ],
      "min": [
        0.0019531298894435167,
        0.0019531298894435167
      ],
      "type": "VEC2"
    },
    {
      "bufferView": 0,
      "componentType": 5125,
      "count": 62334,
      "type": "SCALAR"
    },
    {
      "bufferView": 2,
      "byteOffset": 343440,
      "componentType": 5126,
      "count": 719,
      "max": [
        0.7391160130500793,
        -0.1928189992904663,
        -0.03907519951462746
      ],
      "min": [
        0.6381530165672302,
        -0.33740198612213135,
        -0.11838100105524063
      ],
      "type": "VEC3"
    },
    {
      "bufferView": 2,
      "byteOffset": 352068,
      "componentType": 5126,
      "count": 719,
      "max": [
        0.9979444742202759,
        1.0,
        0.99703449010849
      ],
      "min": [
        -0.9988138675689697,
        -1.0,
        -1.0
      ],
      "type": "VEC3"
    },
    {
      "bufferView": 3,
      "byteOffset": 228960,
      "componentType": 5126,
      "count": 719,
      "max": [
        1.0,
        1.0,
        0.9999998211860657,
        1.0
      ],
      "min": [
        -0.9963117241859436,
        -1.0,
        -1.0,
        -1.0
      ],
      "type": "VEC4"
    },
    {
      "bufferView": 1,
      "byteOffset": 114480,
      "componentType": 5126,
      "count": 719,
      "max": [
        0.9980469942092896,
        0.9980469942092896
      ],
      "min": [
        0.0019531298894435167,
        0.0019531298894435167
      ],
      "type": "VEC2"
    },
    {
      "bufferView": 0,
      "byteOffset": 249336,
      "componentType": 5125,
      "count": 2094,
      "type": "SCALAR"
    },
    {
      "bufferView": 2,
      "byteOffset": 360696,
      "componentType": 5126,
      "count": 203,
      "max": [
        1.0,
        0.34926098585128784,
        0.40351998805999756
      ],
      "min": [
        -0.995917022228241,
        0.10747399926185608,
        -0.413536012172699
      ],
      "type": "VEC3"
    },
    {
      "bufferView": 2,
      "byteOffset": 363132,
      "componentType": 5126,
      "count": 203,
      "max": [
        1.0,
        1.0,
        1.0
      ],
      "min": [
        -1.0,
        -1.0,
        -1.0
      ],
      "type": "VEC3"
    },
    {
      "bufferView": 3,
      "byteOffset": 240464,
      "componentType": 5126,
      "count": 203,
      "max": [
        0.0,
        1.0,
        1.0,
        1.0
      ],
      "min": [
        -1.0,
        -1.0,
        -1.0,
        1.0
      ],
      "type": "VEC4"
    },
    {
      "bufferView": 1,
      "byteOffset": 120232,
      "componentType": 5126,
      "count": 203,
      "max": [
        0.9980469942092896,
        0.9980469942092896
      ],
      "min": [
        0.0019531298894435167,
        0.0019531298894435167
      ],
      "type": "VEC2"
    },
    {
      "bufferView": 0,
      "byteOffset": 257712,
      "componentType": 5125,
      "count": 624,
      "type": "SCALAR"
    },
    {
      "bufferView": 2,
      "byteOffset": 365568,
      "componentType": 5126,
      "count": 1800,
      "max": [
        0.8893370032310486,
        0.1225380003452301,
        0.269335001707077
      ],
      "min": [
        0.8096640110015869,
        -0.34605199098587036,
        0.18966199457645416
      ],
      "type": "VEC3"
    },
    {
      "bufferView": 2,
      "byteOffset": 387168,
      "componentType": 5126,
      "count": 1800,
      "max": [
        1.0,
        1.0,
        1.0
      ],
      "min": [
        -1.0,
        -1.0,
        -1.0
      ],
      "type": "VEC3"
    },
    {
      "bufferView": 3,
      "byteOffset": 243712,
      "componentType": 5126,
      "count": 1800,
      "max": [
        1.0,
        1.0,
        1.0,
        1.0
      ],
      "min": [
        -1.0,
        -1.0,
        -1.0,
        1.0
      ],
      "type": "VEC4"
    },
    {
      "bufferView": 1,
      "byteOffset": 121856,
      "componentType": 5126,
      "count": 1800,
      "max": [
        0.9984149932861328,
        1.0001499652862549
      ],
      "min": [
        0.0019531298894435167,
        0.0019531298894435167
      ],
      "type": "VEC2"
    },
    {
      "bufferView": 0,
      "byteOffset": 260208,
      "componentType": 5125,
      "count": 2964,
      "type": "SCALAR"
    },
    {
      "bufferView": 2,
      "byteOffset": 408768,
      "componentType": 5126,
      "count": 31511,
      "max": [
        1.0,
        0.1897760033607483,
        0.413536012172699
      ],
      "min": [
        -1.0,
        -0.34926098585128784,
        -0.413536012172699
      ],
      "type": "VEC3"
    },
    {
      "bufferView": 2,
      "byteOffset": 786900,
      "componentType": 5126,
      "count": 31511,
      "max": [
        1.0,
        1.0,
        1.0
      ],
      "min": [
        -1.0,
        -1.0,
        -1.0
      ],
      "type": "VEC3"
    },
    {
      "bufferView": 3,
      "byteOffset": 272512,
      "componentType": 5126,
      "count": 31511,
      "max": [
        1.0,
        1.0,
        1.0,
        1.0
      ],
      "min": [
        -1.0,
        -1.0,
        -1.0,
        -1.0
      ],
      "type": "VEC4"
    },
    {
      "bufferView": 1,
      "byteOffset": 136256,
      "componentType": 5126,
      "count": 31511,
      "max": [
        0.9980469942092896,
        0.9980469942092896
      ],
      "min": [
        0.0019531298894435167,
        0.0019531298894435167
      ],
      "type": "VEC2"
    },
    {
      "bufferView": 0,
      "byteOffset": 272064,
      "componentType": 5125,
      "count": 56382,
      "type": "SCALAR"
    },
    {
      "bufferView": 2,
      "byteOffset": 1165032,
      "componentType": 5126,
      "count": 65534,
      "max": [
        0.013201500289142132,
        -0.13607600331306458,
        0.028039200231432915
      ],
      "min": [
        -0.287090003490448,
        -0.33864399790763855,
        -0.2289389967918396
      ],
      "type": "VEC3"
    },
    {
      "bufferView": 2,
      "byteOffset": 1951440,
      "componentType": 5126,
      "count": 65534,
      "max": [
        1.0,
        1.0,
        1.0
      ],
      "min": [
        -1.0,
        -1.0,
        -1.0
      ],
      "type": "VEC3"
    },
    {
      "bufferView": 3,
      "byteOffset": 776688,
      "componentType": 5126,
      "count": 65534,
      "max": [
        1.0,
        1.0,
        1.0,
        1.0
      ],
      "min": [
        -1.0,
        -1.0,
        -1.0,
        -1.0
      ],
      "type": "VEC4"
    },
    {
      "bufferView": 1,
      "byteOffset": 388344,
      "componentType": 5126,
      "count": 65534,
      "max": [
        0.9980019927024841,
        0.9980469942092896
      ],
      "min": [
        0.0019531298894435167,
        0.0019531298894435167
      ],
      "type": "VEC2"
    },
    {
      "bufferView": 0,
      "byteOffset": 497592,
      "componentType": 5125,
      "count": 82098,
      "type": "SCALAR"
    },
    {
      "bufferView": 2,
      "byteOffset": 2737848,
      "componentType": 5126,
      "count": 16395,
      "max": [
        -0.12190599739551544,
        -0.14927199482917786,
        -0.05876019969582558
      ],
      "min": [
        -0.1708039939403534,
        -0.20758099853992462,
        -0.12070100009441376
      ],
      "type": "VEC3"
    },
    {
      "bufferView": 2,
      "byteOffset": 2934588,
      "componentType": 5126,
      "count": 16395,
      "max": [
        0.9994186162948608,
        0.998616635799408,
        0.9987607598304749
      ],
      "min": [
        -0.9985674619674683,
        -0.9980409741401672,
        -0.9977302551269531
      ],
      "type": "VEC3"
    },
    {
      "bufferView": 3,
      "byteOffset": 1825232,
      "componentType": 5126,
      "count": 16395,
      "max": [
        0.9998583197593689,
        0.9975285530090332,
        0.994088351726532,
        1.0
      ],
      "min": [
        -0.9998718500137329,
        -0.993407130241394,
        -0.9903439879417419,
        -1.0
      ],
      "type": "VEC4"
    },
    {
      "bufferView": 1,
      "byteOffset": 912616,
      "componentType": 5126,
      "count": 16395,
      "max": [
        0.9980469942092896,
        0.9906709790229797
      ],
      "min": [
        0.0019531298894435167,
        0.0019531298894435167
      ],
      "type": "VEC2"
    },
    {
      "bufferView": 0,
      "byteOffset": 825984,
      "componentType": 5125,
      "count": 16662,
      "type": "SCALAR"
    }
  ],
  "asset": {
    "extras": {
      "author": "nobgame (https://sketchfab.com/nobgame)",
      "license": "CC-BY-4.0 (http://creativecommons.org/licenses/by/4.0/)",
      "source": "https://sketchfab.com/3d-models/room-607d5a79f586497581a552407e7ef817",
      "title": "room"
    },
    "generator": "Sketchfab-12.68.0",
    "version": "2.0"
  },
  "bufferViews": [
    {
      "buffer": 0,
      "byteLength": 892632,
      "name": "floatBufferViews",
      "target": 34963
    },
    {
      "buffer": 0,
      "byteLength": 1043776,
      "byteOffset": 892632,
      "byteStride": 8,
      "name": "floatBufferViews",
      "target": 34962
    },
    {
      "buffer": 0,
      "byteLength": 3131328,
      "byteOffset": 1936408,
      "byteStride": 12,
      "name": "floatBufferViews",
      "target": 34962
    },
    {
      "buffer": 0,
      "byteLength": 2087552,
      "byteOffset": 5067736,
      "byteStride": 16,
      "name": "floatBufferViews",
      "target": 34962
    }
  ],
  "buffers": [
    {
      "byteLength": 7155288,
      "uri": "scene.bin"
    }
  ],
  "images": [
    {
      "uri": "textures/teburu_baseColor.jpeg"
    },
    {
      "uri": "textures/teburu_metallicRoughness.png"
    },
    {
      "uri": "textures/teburu_normal.png"
    },
    {
      "uri": "textures/room_baseColor.jpeg"
    },
    {
      "uri": "textures/room_metallicRoughness.png"
    },
    {
      "uri": "textures/room_normal.png"
    },
    {
      "uri": "textures/hashira_baseColor.jpeg"
    },
    {
      "uri": "textures/hashira_metallicRoughness.png"
    },
    {
      "uri": "textures/hashira_normal.png"
    },
    {
      "uri": "textures/material_baseColor.jpeg"
    },
    {
      "uri": "textures/material_metallicRoughness.png"
    },
    {
      "uri": "textures/material_normal.png"
    },
    {
      "uri": "textures/kusa_baseColor.jpeg"
    },
    {
      "uri": "textures/kusa_metallicRoughness.png"
    },
    {
      "uri": "textures/kusa_normal.png"
    },
    {
      "uri": "textures/kobin_baseColor.jpeg"
    },
    {
      "uri": "textures/kobin_metallicRoughness.png"
    },
    {
      "uri": "textures/kobin_normal.png"
    }
  ],
  "materials": [
    {
      "doubleSided": true,
      "name": "teburu",
      "normalTexture": {
        "index": 2
      },
      "occlusionTexture": {
        "index": 1
      },
      "pbrMetallicRoughness": {
        "baseColorTexture": {
          "index": 0
        },
        "metallicRoughnessTexture": {
          "index": 1
        }
      }
    },
    {
      "doubleSided": true,
      "name": "room",
      "normalTexture": {
        "index": 5
      },
      "occlusionTexture": {
        "index": 4
      },
      "pbrMetallicRoughness": {
        "baseColorTexture": {
          "index": 3
        },
        "metallicRoughnessTexture": {
          "index": 4
        }
      }
    },
    {
      "doubleSided": true,
      "name": "hashira",
      "normalTexture": {
        "index": 8
      },
      "occlusionTexture": {
        "index": 7
      },
      "pbrMetallicRoughness": {
        "baseColorTexture": {
          "index": 6
        },
        "metallicRoughnessTexture": {
          "index": 7
        }
      }
    },
    {
      "doubleSided": true,
      "name": "material",
      "normalTexture": {
        "index": 11
      },
      "occlusionTexture": {
        "index": 10
      },
      "pbrMetallicRoughness": {
        "baseColorTexture": {
          "index": 9
        },
        "metallicRoughnessTexture": {
          "index": 10
        }
      }
    },
    {
      "doubleSided": true,
      "name": "kusa",
      "normalTexture": {
        "index": 14
      },
      "occlusionTexture": {
        "index": 13
      },
      "pbrMetallicRoughness": {
        "baseColorTexture": {
          "index": 12
        },
        "metallicRoughnessTexture": {
          "index": 13
        }
      }
    },
    {
      "doubleSided": true,
      "name": "kobin",
      "normalTexture": {
        "index": 17
      },
      "occlusionTexture": {
        "index": 16
      },
      "pbrMetallicRoughness": {
        "baseColorTexture": {
          "index": 15
        },
        "metallicRoughnessTexture": {
          "index": 16
        }
      }
    }
  ],
  "meshes": [
    {
      "name": "defaultMaterial",
      "primitives": [
        {
          "attributes": {
            "NORMAL": 1,
            "POSITION": 0,
            "TANGENT": 2,
            "TEXCOORD_0": 3
          },
          "indices": 4,
          "material": 5,
          "mode": 4
        }
      ]
    },
    {
      "name": "defaultMaterial",
      "primitives": [
        {
          "attributes": {
            "NORMAL": 6,
            "POSITION": 5,
            "TANGENT": 7,
            "TEXCOORD_0": 8
          },
          "indices": 9,
          "material": 4,
          "mode": 4
        }
      ]
    },
    {
      "name": "defaultMaterial",
      "primitives": [
        {
          "attributes": {
            "NORMAL": 11,
            "POSITION": 10,
            "TANGENT": 12,
            "TEXCOORD_0": 13
          },
          "indices": 14,
          "material": 3,
          "mode": 4
        }
      ]
    },
    {
      "name": "defaultMaterial",
      "primitives": [
        {
          "attributes": {
            "NORMAL": 16,
            "POSITION": 15,
            "TANGENT": 17,
            "TEXCOORD_0": 18
          },
          "indices": 19,
          "material": 2,
          "mode": 4
        }
      ]
    },
    {
      "name": "defaultMaterial",
      "primitives": [
        {
          "attributes": {
            "NORMAL": 21,
            "POSITION": 20,
            "TANGENT": 22,
            "TEXCOORD_0": 23
          },
          "indices": 24,
          "material": 1,
          "mode": 4
        }
      ]
    },
    {
      "name": "defaultMaterial",
      "primitives": [
        {
          "attributes": {
            "NORMAL": 26,
            "POSITION": 25,
            "TANGENT": 27,
            "TEXCOORD_0": 28
          },
          "indices": 29,
          "material": 0,
          "mode": 4
        }
      ]
    },
    {
      "name": "defaultMaterial",
      "primitives": [
        {
          "attributes": {
            "NORMAL": 31,
            "POSITION": 30,
            "TANGENT": 32,
            "TEXCOORD_0": 33
          },
          "indices": 34,
          "material": 0,
          "mode": 4
        }
      ]
    }
  ],
  "nodes": [
    {
      "children": [
        1
      ],
      "matrix": [
        1.0,
        0.0,
        0.0,
        0.0,
        0.0,
        2.220446049250313e-16,
        -1.0,
        0.0,
        0.0,
        1.0,
        2.220446049250313e-16,
        0.0,
        0.0,
        0.0,
        0.0,
        1.0
      ],
      "name": "Sketchfab_model"
    },
    {
      "children": [
        2,
        4,
        6,
        8,
        10,
        12
      ],
      "matrix": [
        1.0,
        0.0,
        0.0,
        0.0,
        0.0,
        -4.371139006309477e-08,
        0.999999999999999,
        0.0,
        0.0,
        -0.999999999999999,
        -4.371139006309477e-08,
        0.0,
        0.0,
        0.0,
        0.0,
        1.0
      ],
      "name": "Collada visual scene group"
    },
    {
      "children": [
        3
      ],
      "name": "kobin"
    },
    {
      "mesh": 0,
      "name": "defaultMaterial"
    },
    {
      "children": [
        5
      ],
      "name": "kusa"
    },
    {
      "mesh": 1,
      "name": "defaultMaterial"
    },
    {
      "children": [
        7
      ],
      "name": "2f"
    },
    {
      "mesh": 2,
      "name": "defaultMaterial"
    },
    {
      "children": [
        9
      ],
      "name": "hashira"
    },
    {
      "mesh": 3,
      "name": "defaultMaterial"
    },
    {
      "children": [
        11
      ],
      "name": "room"
    },
    {
      "mesh": 4,
      "name": "defaultMaterial"
    },
    {
      "children": [
        13,
        14
      ],
      "name": "teburu"
    },
    {
      "mesh": 5,
      "name": "defaultMaterial"
    },
    {
      "mesh": 6,
      "name": "defaultMaterial"
    }
  ],
  "samplers": [
    {
      "magFilter": 9729,
      "minFilter": 9987,
      "wrapS": 10497,
      "wrapT": 10497
    }
  ],
  "scene": 0,
  "scenes": [
    {
      "name": "Sketchfab_Scene",
      "nodes": [
        0
      ]
    }
  ],
  "textures": [
    {
      "sampler": 0,
      "source": 0
    },
    {
      "sampler": 0,
      "source": 1
    },
    {
      "sampler": 0,
      "source": 2
    },
    {
      "sampler": 0,
      "source": 3
    },
    {
      "sampler": 0,
      "source": 4
    },
    {
      "sampler": 0,
      "source": 5
    },
    {
      "sampler": 0,
      "source": 6
    },
    {
      "sampler": 0,
      "source": 7
    },
    {
      "sampler": 0,
      "source": 8
    },
    {
      "sampler": 0,
      "source": 9
    },
    {
      "sampler": 0,
      "source": 10
    },
    {
      "sampler": 0,
      "source": 11
    },
    {
      "sampler": 0,
      "source": 12
    },
    {
      "sampler": 0,
      "source": 13
    },
    {
      "sampler": 0,
      "source": 14
    },
    {
      "sampler": 0,
      "source": 15
    },
    {
      "sampler": 0,
      "source": 16
    },
    {
      "sampler": 0,
      "source": 17
    }
  ]
}
